<svg width="53" height="43"
  xmlns="http://www.w3.org/2000/svg">
  <title>Nerves</title>
  <g fill-rule="nonzero" fill="none">
    <path d="M12.631.003H2.517A2.515 2.515 0 000 2.516v37.728a2.515 2.515 0 002.517 2.513h8.43a2.515 2.515 0 002.518-2.513v-1.51a2.515 2.515 0 00-2.518-2.513h-1.88a2.515 2.515 0 01-2.516-2.513V9.058a2.515 2.515 0 012.517-2.513h1.782c.531 0 1.046.167 1.476.477L35.673 23.9c1.664 1.203 3.994.016 3.994-2.036v-1.072c0-.793-.375-1.542-1.012-2.016L14.136.503a2.516 2.516 0 00-1.505-.5z" fill="#FFFFFF"></path>
    <path d="M40.168 42.76h10.111a2.515 2.515 0 002.517-2.513V2.519A2.515 2.515 0 0050.28.006h-8.43a2.515 2.515 0 00-2.517 2.513v1.51a2.515 2.515 0 002.517 2.513h1.88a2.515 2.515 0 012.517 2.513v24.65a2.515 2.515 0 01-2.518 2.513h-1.781a2.525 2.525 0 01-1.477-.478L17.12 18.867c-1.664-1.203-3.994-.017-3.994 2.035v1.073c0 .793.375 1.541 1.013 2.016L38.66 42.263c.437.324.962.497 1.508.497z" fill="#FFFFFF"></path>
    <path d="M12.738 0H2.668A2.505 2.505 0 00.16 2.505v37.574a2.506 2.506 0 002.51 2.505h8.393a2.506 2.506 0 002.51-2.505v-1.505a2.506 2.506 0 00-2.51-2.504H9.191a2.506 2.506 0 01-2.509-2.505V9.016a2.506 2.506 0 012.509-2.505h1.773c.529 0 1.044.168 1.471.475l23.252 16.806c1.659 1.198 3.98.017 3.98-2.027v-1.07c0-.79-.375-1.532-1.007-2.007L14.237.497a2.503 2.503 0 00-1.5-.497z" fill="#FFFFFF"></path>
    <path d="M40.16 42.581h10.069a2.506 2.506 0 002.509-2.504V2.505A2.506 2.506 0 0050.228 0h-8.393a2.506 2.506 0 00-2.51 2.505V4.01a2.506 2.506 0 002.51 2.504h1.871a2.506 2.506 0 012.509 2.505v24.546a2.506 2.506 0 01-2.509 2.505h-1.773a2.525 2.525 0 01-1.471-.475L17.207 18.783c-1.658-1.198-3.98-.017-3.98 2.027v1.07c0 .79.375 1.533 1.007 2.007l24.42 18.197c.44.324.966.497 1.505.497z" fill="#FFFFFF"></path>
  </g>
</svg>
